<svg width="48" height="42" viewBox="0 0 48 42" fill="none" xmlns="http://www.w3.org/2000/svg">
<g id="Group">
<path id="Vector" d="M42.8682 34.7586H19.2833C18.97 34.6739 18.6419 34.6273 18.2947 34.6273H11.9735C10.6969 34.6273 9.60672 34.1446 8.69643 33.177C7.78826 32.1903 7.33311 31.0109 7.33311 29.6388V28.9147C7.33311 27.5426 7.78826 26.3717 8.69643 25.4062C9.6046 24.4407 10.6969 23.9558 11.9735 23.9558H18.2947C19.3002 23.9558 20.1597 23.598 20.8752 22.8823C21.5908 22.1667 21.9485 21.2964 21.9485 20.2716C21.9485 19.2468 21.5908 18.4062 20.8752 17.6906C20.1597 16.9749 19.3002 16.6171 18.2947 16.6171H13.7136C12.418 16.6171 11.3172 16.1639 10.409 15.2535C9.50087 14.343 9.04572 13.2526 9.04572 11.9758C9.04572 10.699 9.50087 9.57895 10.409 8.6706C11.3172 7.76225 12.4201 7.30702 13.7136 7.30702H21.3304C21.4913 7.32819 21.6543 7.34513 21.8215 7.34513H41.4202C43.4186 7.34513 45.0402 5.72323 45.0402 3.72444V3.62069C45.0402 1.6219 43.4186 0 41.4202 0H13.7136C10.409 0 7.58503 1.1709 5.24792 3.50847C2.90869 5.84815 1.74013 8.6706 1.74013 11.9758C1.74013 13.5617 2.00052 15.0121 2.5234 16.327C3.1606 17.8536 4.06031 18.889 5.2204 19.431C3.55859 20.0895 2.24397 21.3748 1.27652 23.2889C0.425507 24.9912 0 26.8651 0 28.9147V29.6388C0 33.0414 1.17067 35.9422 3.50778 38.3391C5.84701 40.7571 8.66891 41.964 11.9756 41.964H16.5757C16.7345 41.9852 16.8933 42 17.0584 42H42.8703C44.8687 42 46.4903 40.3781 46.4903 38.3793C46.4903 36.3805 44.8687 34.7586 42.8703 34.7586H42.8682Z" fill="white"/>
<path id="Vector_2" d="M24.373 30.8543C24.373 31.7012 25.0589 32.3872 25.9057 32.3872H43.4679C44.3147 32.3872 45.0006 31.7012 45.0006 30.8543C45.0006 30.0073 44.3147 29.3213 43.4679 29.3213H25.9057C25.0589 29.3213 24.373 30.0073 24.373 30.8543Z" fill="white"/>
<path id="Vector_3" d="M40.2353 23.8862H25.9057C25.0593 23.8862 24.373 24.5726 24.373 25.4192C24.373 26.2658 25.0593 26.9522 25.9057 26.9522H40.2353C41.0818 26.9522 41.768 26.2658 41.768 25.4192C41.768 24.5726 41.0818 23.8862 40.2353 23.8862Z" fill="white"/>
<path id="Vector_4" d="M46.2835 18.4487H25.9057C25.0593 18.4487 24.373 19.1351 24.373 19.9817C24.373 20.8283 25.0593 21.5147 25.9057 21.5147H46.2835C47.1299 21.5147 47.8161 20.8283 47.8161 19.9817C47.8161 19.1351 47.1299 18.4487 46.2835 18.4487Z" fill="white"/>
<path id="Vector_5" d="M25.9057 13.2251C25.0589 13.2251 24.373 13.9111 24.373 14.7581C24.373 15.605 25.0589 16.291 25.9057 16.291H37.1721C38.0189 16.291 38.7048 15.605 38.7048 14.7581C38.7048 13.9111 38.0189 13.2251 37.1721 13.2251H25.9057Z" fill="white"/>
<path id="Vector_6" d="M43.053 8.64746H25.9057C25.0593 8.64746 24.373 9.3338 24.373 10.1804C24.373 11.0271 25.0593 11.7134 25.9057 11.7134H43.053C43.8995 11.7134 44.5857 11.0271 44.5857 10.1804C44.5857 9.3338 43.8995 8.64746 43.053 8.64746Z" fill="white"/>
</g>
</svg>
