<svg width="157" height="70" viewBox="0 0 157 70" fill="none" xmlns="http://www.w3.org/2000/svg">
<g id="Layer_1" clip-path="url(#clip0_143_2552)">
<g id="Group">
<path id="Vector" d="M1.78882 68.1508C0.596274 66.9581 0 65.5077 0 63.7997V6.09095C0 4.4147 0.596274 2.98195 1.78882 1.78917C2.97784 0.59639 4.41384 0 6.08976 0C7.76567 0 9.24754 0.59639 10.4401 1.78917C11.6326 2.98195 12.2289 4.4147 12.2289 6.09095V63.8032C12.2289 65.5112 11.6326 66.9616 10.4401 68.1544C9.24754 69.3471 7.79743 69.9435 6.08976 69.9435C4.38208 69.9435 2.98137 69.3471 1.78882 68.1544V68.1508Z" fill="#333333"/>
<path id="Vector_2" d="M42.9141 54.4268C41.2382 54.4268 39.8057 53.8304 38.6131 52.6376C37.4206 51.4448 36.8243 49.9944 36.8243 48.2864C36.8243 46.5784 37.4206 45.1774 38.6131 43.9846C39.8057 42.7919 41.2382 42.1955 42.9141 42.1955H56.0109L46.8304 12.6618C46.7669 12.4359 46.6858 12.2913 46.587 12.2277C46.5235 12.2913 46.4564 12.4359 46.3929 12.6618L29.9619 65.6841C29.4467 67.2968 28.4483 68.4861 26.9664 69.2624C25.4845 70.067 23.9392 70.2117 22.3267 69.6965C20.7143 69.213 19.5077 68.2143 18.7032 66.7004C17.9305 65.2183 17.7859 63.6726 18.2693 62.0599L34.6968 9.03758C35.533 6.36265 37.0466 4.18882 39.2412 2.51258C41.4322 0.87162 43.8808 0.0493774 46.587 0.0493774C49.2931 0.0493774 51.7911 0.87162 53.9822 2.5161C56.1732 4.19235 57.6869 6.36618 58.5266 9.04111L75.007 62.0634C75.4904 63.6761 75.3457 65.2218 74.573 66.7039C73.7686 68.2179 72.5584 69.2165 70.9495 69.7C70.3709 69.8941 69.7746 69.9894 69.1607 69.9894C66.1652 69.9894 64.2141 68.5566 63.3144 65.6876L59.8356 54.4268H42.9211H42.9141Z" fill="#333333"/>
</g>
<g id="Group_2">
<path id="Vector_3" d="M148.754 57.931H109.446C108.924 57.7899 108.377 57.7122 107.799 57.7122H97.2632C95.1357 57.7122 93.3186 56.9076 91.8015 55.2949C90.2879 53.6504 89.5293 51.6848 89.5293 49.3981V48.1912C89.5293 45.9044 90.2879 43.9529 91.8015 42.3437C93.3151 40.7345 95.1357 39.9264 97.2632 39.9264H107.799C109.474 39.9264 110.907 39.33 112.099 38.1372C113.292 36.9444 113.888 35.4941 113.888 33.786C113.888 32.078 113.292 30.6771 112.099 29.4843C110.907 28.2915 109.474 27.6951 107.799 27.6951H100.163C98.0041 27.6951 96.1694 26.9399 94.6558 25.4225C93.1422 23.905 92.3836 22.0876 92.3836 19.9597C92.3836 17.8317 93.1422 15.9649 94.6558 14.451C96.1694 12.9371 98.0077 12.1784 100.163 12.1784H112.858C113.126 12.2137 113.398 12.2419 113.677 12.2419H146.341C149.672 12.2419 152.374 9.53872 152.374 6.2074V6.03448C152.374 2.70317 149.672 0 146.341 0H100.163C94.6558 0 89.9491 1.9515 86.054 5.84745C82.1552 9.74693 80.2077 14.451 80.2077 19.9597C80.2077 22.6028 80.6416 25.0202 81.5131 27.2116C82.5751 29.756 84.0746 31.4816 86.0081 32.3851C83.2384 33.4826 81.0474 35.6246 79.435 38.8148C78.0166 41.652 77.3074 44.7752 77.3074 48.1912V49.3981C77.3074 55.0691 79.2586 59.9037 83.1537 63.8985C87.0525 67.9285 91.7556 69.94 97.2667 69.94H104.934C105.198 69.9753 105.463 70 105.738 70H148.758C152.089 70 154.791 67.2968 154.791 63.9655C154.791 60.6342 152.089 57.931 148.758 57.931H148.754Z" fill="#467DCE"/>
<path id="Vector_4" d="M117.928 51.4237C117.928 52.8352 119.071 53.9786 120.483 53.9786H149.753C151.164 53.9786 152.307 52.8352 152.307 51.4237C152.307 50.0121 151.164 48.8687 149.753 48.8687H120.483C119.071 48.8687 117.928 50.0121 117.928 51.4237Z" fill="#467DCE"/>
<path id="Vector_5" d="M144.365 39.8099H120.483C119.072 39.8099 117.928 40.9538 117.928 42.3649C117.928 43.7759 119.072 44.9198 120.483 44.9198H144.365C145.776 44.9198 146.92 43.7759 146.92 42.3649C146.92 40.9538 145.776 39.8099 144.365 39.8099Z" fill="#467DCE"/>
<path id="Vector_6" d="M154.446 30.7476H120.483C119.072 30.7476 117.928 31.8915 117.928 33.3026C117.928 34.7136 119.072 35.8575 120.483 35.8575H154.446C155.856 35.8575 157 34.7136 157 33.3026C157 31.8915 155.856 30.7476 154.446 30.7476Z" fill="#467DCE"/>
<path id="Vector_7" d="M120.483 22.0417C119.071 22.0417 117.928 23.1851 117.928 24.5967C117.928 26.0083 119.071 27.1517 120.483 27.1517H139.26C140.671 27.1517 141.814 26.0083 141.814 24.5967C141.814 23.1851 140.671 22.0417 139.26 22.0417H120.483Z" fill="#467DCE"/>
<path id="Vector_8" d="M149.061 14.4122H120.483C119.072 14.4122 117.928 15.5561 117.928 16.9671C117.928 18.3782 119.072 19.5221 120.483 19.5221H149.061C150.472 19.5221 151.616 18.3782 151.616 16.9671C151.616 15.5561 150.472 14.4122 149.061 14.4122Z" fill="#467DCE"/>
</g>
</g>
<defs>
<clipPath id="clip0_143_2552">
<rect width="157" height="70" fill="white"/>
</clipPath>
</defs>
</svg>
